ffmpeg started on 2025-05-12 at 15:19:38
Report written to "D:\Convert\FFMetrics\reports\psnr_report-6.txt"
Log level: 32
Command line:
ffmpeg -hide_banner -nostdin -i "G:\\\xc0\xed\xe8\xec\xe5\\\xce\xed\xe3\xee\xe8\xed\xe3\xe8\\!_35_\xcb\xe5\xf2\xee_2024\\DreamCast\\\xc6\xe8\xe7\xed\xfc \xf1 \xec\xee\xe5\xe9 \xf1\xe2\xee\xe4\xed\xee\xe9 \xf1\xe5\xf1\xf2\xf0\xee\xe9\\[DC] Gimai Seikatsu - 08_Telegram_HEVC.mkv" -i "G:\\\xc0\xed\xe8\xec\xe5\\\xce\xed\xe3\xee\xe8\xed\xe3\xe8\\!_35_\xcb\xe5\xf2\xee_2024\\DreamCast\\\xc6\xe8\xe7\xed\xfc \xf1 \xec\xee\xe5\xe9 \xf1\xe2\xee\xe4\xed\xee\xe9 \xf1\xe5\xf1\xf2\xf0\xee\xe9\\[DC] Gimai Seikatsu - 08_Telegram.mp4" -lavfi "[0:v]settb=AVTB,setpts=PTS-STARTPTS,format=pix_fmts=yuv420p10,fps=24000/1001,scale=1920:1080:flags=bicubic[main];[1:v]settb=AVTB,setpts=PTS-STARTPTS,format=pix_fmts=yuv420p,fps=24000/1001,scale=1920:1080:flags=bicubic[ref];[main][ref]psnr=eof_action=endall:stats_file='D\\:/Convert/FFMetrics/logs/psnr_logfile-6.txt'" -f null -
Input #0, matroska,webm, from 'G:\Аниме\Онгоинги\!_35_Лето_2024\DreamCast\Жизнь с моей сводной сестрой\[DC] Gimai Seikatsu - 08_Telegram_HEVC.mkv':
  Metadata:
    COMPATIBLE_BRANDS: isomiso2avc1mp41
    MAJOR_BRAND     : isom
    MINOR_VERSION   : 512
    ENCODER         : Lavf61.7.100
  Duration: 00:23:56.67, start: -0.021000, bitrate: 759 kb/s
  Stream #0:0: Video: hevc (Main 10), yuv420p10le(tv, bt709, progressive), 1920x1080 [SAR 1:1 DAR 16:9], 23.98 fps, 23.98 tbr, 1k tbn (default)
      Metadata:
        HANDLER_NAME    : VideoHandler
        VENDOR_ID       : [0][0][0][0]
        ENCODER         : Lavc61.19.100 libx265
        BPS             : 562284
        DURATION        : 00:23:56.559708333
        NUMBER_OF_FRAMES: 34443
        NUMBER_OF_BYTES : 100969351
        _STATISTICS_WRITING_APP: mkvpropedit v66.0.0 ('Josie') 64-bit
        _STATISTICS_WRITING_DATE_UTC: 2025-05-07 13:37:45
        _STATISTICS_TAGS: BPS DURATION NUMBER_OF_FRAMES NUMBER_OF_BYTES
  Stream #0:1: Audio: aac (LC), 48000 Hz, stereo, fltp (default)
      Metadata:
        HANDLER_NAME    : SoundHandler
        VENDOR_ID       : [0][0][0][0]
        ENCODER         : Lavc61.19.100 aac
        BPS             : 193054
        DURATION        : 00:23:56.672000000
        NUMBER_OF_FRAMES: 67345
        NUMBER_OF_BYTES : 34669484
        _STATISTICS_WRITING_APP: mkvpropedit v66.0.0 ('Josie') 64-bit
        _STATISTICS_WRITING_DATE_UTC: 2025-05-07 13:37:45
        _STATISTICS_TAGS: BPS DURATION NUMBER_OF_FRAMES NUMBER_OF_BYTES
Input #1, mov,mp4,m4a,3gp,3g2,mj2, from 'G:\Аниме\Онгоинги\!_35_Лето_2024\DreamCast\Жизнь с моей сводной сестрой\[DC] Gimai Seikatsu - 08_Telegram.mp4':
  Metadata:
    major_brand     : isom
    minor_version   : 512
    compatible_brands: isomiso2avc1mp41
    encoder         : Lavf60.16.100
  Duration: 00:23:56.63, start: 0.000000, bitrate: 3734 kb/s
  Stream #1:0[0x1](und): Video: h264 (High) (avc1 / 0x31637661), yuv420p(tv, bt709, progressive), 1920x1080 [SAR 1:1 DAR 16:9], 3586 kb/s, 23.98 fps, 23.98 tbr, 24k tbn (default)
      Metadata:
        handler_name    : VideoHandler
        vendor_id       : [0][0][0][0]
        encoder         : Lavc60.31.102 h264_qsv
  Stream #1:1[0x2](und): Audio: aac (HE-AACv2) (mp4a / 0x6134706D), 48000 Hz, stereo, fltp, 144 kb/s (default)
      Metadata:
        handler_name    : SoundHandler
        vendor_id       : [0][0][0][0]
Stream mapping:
  Stream #0:0 (hevc) -> settb:default
  Stream #1:0 (h264) -> settb:default
  psnr:default -> Stream #0:0 (wrapped_avframe)
  Stream #0:1 -> #0:1 (aac (native) -> pcm_s16le (native))
Output #0, null, to 'pipe:':
  Metadata:
    COMPATIBLE_BRANDS: isomiso2avc1mp41
    MAJOR_BRAND     : isom
    MINOR_VERSION   : 512
    encoder         : Lavf61.7.100
  Stream #0:0: Video: wrapped_avframe, yuv420p10le(tv, bt709, progressive), 1920x1080 [SAR 1:1 DAR 16:9], q=2-31, 200 kb/s, 23.98 fps, 23.98 tbn
      Metadata:
        encoder         : Lavc61.19.100 wrapped_avframe
  Stream #0:1: Audio: pcm_s16le, 48000 Hz, stereo, s16, 1536 kb/s (default)
      Metadata:
        HANDLER_NAME    : SoundHandler
        VENDOR_ID       : [0][0][0][0]
        _STATISTICS_TAGS: BPS DURATION NUMBER_OF_FRAMES NUMBER_OF_BYTES
        BPS             : 193054
        DURATION        : 00:23:56.672000000
        NUMBER_OF_FRAMES: 67345
        NUMBER_OF_BYTES : 34669484
        _STATISTICS_WRITING_APP: mkvpropedit v66.0.0 ('Josie') 64-bit
        _STATISTICS_WRITING_DATE_UTC: 2025-05-07 13:37:45
        encoder         : Lavc61.19.100 pcm_s16le
frame=  167 fps=0.0 q=-0.0 size=N/A time=00:00:06.96 bitrate=N/A speed=13.8x    frame=  422 fps=412 q=-0.0 size=N/A time=00:00:17.60 bitrate=N/A speed=17.2x    frame=  683 fps=441 q=-0.0 size=N/A time=00:00:28.48 bitrate=N/A speed=18.4x    frame=  928 fps=450 q=-0.0 size=N/A time=00:00:38.70 bitrate=N/A speed=18.8x    frame= 1173 fps=456 q=-0.0 size=N/A time=00:00:48.92 bitrate=N/A speed=  19x    frame= 1454 fps=470 q=-0.0 size=N/A time=00:01:00.64 bitrate=N/A speed=19.6x    frame= 1715 fps=476 q=-0.0 size=N/A time=00:01:11.52 bitrate=N/A speed=19.9x    frame= 1993 fps=483 q=-0.0 size=N/A time=00:01:23.12 bitrate=N/A speed=20.2x    frame= 2254 fps=486 q=-0.0 size=N/A time=00:01:34.01 bitrate=N/A speed=20.3x    frame= 2467 fps=478 q=-0.0 size=N/A time=00:01:42.89 bitrate=N/A speed=19.9x    frame= 2710 fps=478 q=-0.0 size=N/A time=00:01:53.02 bitrate=N/A speed=19.9x    frame= 2918 fps=473 q=-0.0 size=N/A time=00:02:01.70 bitrate=N/A speed=19.7x    frame= 3176 fps=474 q=-0.0 size=N/A time=00:02:12.46 bitrate=N/A speed=19.8x    frame= 3420 fps=474 q=-0.0 size=N/A time=00:02:22.64 bitrate=N/A speed=19.8x    frame= 3555 fps=460 q=-0.0 size=N/A time=00:02:28.27 bitrate=N/A speed=19.2x    frame= 3734 fps=453 q=-0.0 size=N/A time=00:02:35.73 bitrate=N/A speed=18.9x    frame= 3982 fps=454 q=-0.0 size=N/A time=00:02:46.08 bitrate=N/A speed=18.9x    frame= 4241 fps=457 q=-0.0 size=N/A time=00:02:56.88 bitrate=N/A speed=19.1x    frame= 4511 fps=460 q=-0.0 size=N/A time=00:03:08.14 bitrate=N/A speed=19.2x    frame= 4778 fps=464 q=-0.0 size=N/A time=00:03:19.28 bitrate=N/A speed=19.3x    frame= 5038 fps=466 q=-0.0 size=N/A time=00:03:30.12 bitrate=N/A speed=19.4x    frame= 5315 fps=469 q=-0.0 size=N/A time=00:03:41.67 bitrate=N/A speed=19.5x    frame= 5589 fps=471 q=-0.0 size=N/A time=00:03:53.10 bitrate=N/A speed=19.7x    frame= 5860 fps=473 q=-0.0 size=N/A time=00:04:04.41 bitrate=N/A speed=19.7x    frame= 6127 fps=475 q=-0.0 size=N/A time=00:04:15.54 bitrate=N/A speed=19.8x    frame= 6402 fps=477 q=-0.0 size=N/A time=00:04:27.01 bitrate=N/A speed=19.9x    frame= 6672 fps=479 q=-0.0 size=N/A time=00:04:38.27 bitrate=N/A speed=  20x    frame= 6944 fps=481 q=-0.0 size=N/A time=00:04:49.62 bitrate=N/A speed=  20x    frame= 7187 fps=480 q=-0.0 size=N/A time=00:04:59.75 bitrate=N/A speed=  20x    frame= 7451 fps=481 q=-0.0 size=N/A time=00:05:10.76 bitrate=N/A speed=20.1x    frame= 7711 fps=482 q=-0.0 size=N/A time=00:05:21.61 bitrate=N/A speed=20.1x    frame= 7992 fps=484 q=-0.0 size=N/A time=00:05:33.33 bitrate=N/A speed=20.2x    frame= 8266 fps=485 q=-0.0 size=N/A time=00:05:44.76 bitrate=N/A speed=20.2x    frame= 8545 fps=487 q=-0.0 size=N/A time=00:05:56.39 bitrate=N/A speed=20.3x    frame= 8829 fps=489 q=-0.0 size=N/A time=00:06:08.24 bitrate=N/A speed=20.4x    frame= 9102 fps=490 q=-0.0 size=N/A time=00:06:19.62 bitrate=N/A speed=20.4x    frame= 9345 fps=490 q=-0.0 size=N/A time=00:06:29.76 bitrate=N/A speed=20.4x    frame= 9562 fps=488 q=-0.0 size=N/A time=00:06:38.81 bitrate=N/A speed=20.3x    frame= 9762 fps=485 q=-0.0 size=N/A time=00:06:47.15 bitrate=N/A speed=20.2x    frame= 9967 fps=483 q=-0.0 size=N/A time=00:06:55.70 bitrate=N/A speed=20.1x    frame=10178 fps=481 q=-0.0 size=N/A time=00:07:04.50 bitrate=N/A speed=  20x    frame=10386 fps=479 q=-0.0 size=N/A time=00:07:13.18 bitrate=N/A speed=  20x    frame=10602 fps=477 q=-0.0 size=N/A time=00:07:22.19 bitrate=N/A speed=19.9x    frame=10852 fps=478 q=-0.0 size=N/A time=00:07:32.61 bitrate=N/A speed=19.9x    frame=11126 fps=479 q=-0.0 size=N/A time=00:07:44.04 bitrate=N/A speed=  20x    frame=11376 fps=479 q=-0.0 size=N/A time=00:07:54.47 bitrate=N/A speed=  20x    frame=11639 fps=480 q=-0.0 size=N/A time=00:08:05.44 bitrate=N/A speed=  20x    frame=11886 fps=479 q=-0.0 size=N/A time=00:08:15.74 bitrate=N/A speed=  20x    frame=12126 fps=479 q=-0.0 size=N/A time=00:08:25.75 bitrate=N/A speed=  20x    frame=12337 fps=478 q=-0.0 size=N/A time=00:08:34.55 bitrate=N/A speed=19.9x    frame=12588 fps=478 q=-0.0 size=N/A time=00:08:45.02 bitrate=N/A speed=19.9x    frame=12848 fps=478 q=-0.0 size=N/A time=00:08:55.86 bitrate=N/A speed=19.9x    frame=13104 fps=479 q=-0.0 size=N/A time=00:09:06.54 bitrate=N/A speed=  20x    frame=13376 fps=480 q=-0.0 size=N/A time=00:09:17.89 bitrate=N/A speed=  20x    frame=13644 fps=480 q=-0.0 size=N/A time=00:09:29.06 bitrate=N/A speed=  20x    frame=13928 fps=482 q=-0.0 size=N/A time=00:09:40.91 bitrate=N/A speed=20.1x    frame=14191 fps=482 q=-0.0 size=N/A time=00:09:51.88 bitrate=N/A speed=20.1x    frame=14475 fps=483 q=-0.0 size=N/A time=00:10:03.72 bitrate=N/A speed=20.2x    frame=14749 fps=484 q=-0.0 size=N/A time=00:10:15.15 bitrate=N/A speed=20.2x    frame=15036 fps=485 q=-0.0 size=N/A time=00:10:27.12 bitrate=N/A speed=20.2x    frame=15311 fps=486 q=-0.0 size=N/A time=00:10:38.59 bitrate=N/A speed=20.3x    frame=15579 fps=487 q=-0.0 size=N/A time=00:10:49.77 bitrate=N/A speed=20.3x    frame=15857 fps=488 q=-0.0 size=N/A time=00:11:01.36 bitrate=N/A speed=20.3x    frame=16138 fps=488 q=-0.0 size=N/A time=00:11:13.08 bitrate=N/A speed=20.4x    frame=16409 fps=489 q=-0.0 size=N/A time=00:11:24.39 bitrate=N/A speed=20.4x    frame=16671 fps=489 q=-0.0 size=N/A time=00:11:35.31 bitrate=N/A speed=20.4x    frame=16939 fps=490 q=-0.0 size=N/A time=00:11:46.49 bitrate=N/A speed=20.4x    frame=17216 fps=490 q=-0.0 size=N/A time=00:11:58.05 bitrate=N/A speed=20.5x    frame=17479 fps=491 q=-0.0 size=N/A time=00:12:09.01 bitrate=N/A speed=20.5x    frame=17752 fps=491 q=-0.0 size=N/A time=00:12:20.40 bitrate=N/A speed=20.5x    frame=18031 fps=492 q=-0.0 size=N/A time=00:12:32.04 bitrate=N/A speed=20.5x    frame=18287 fps=492 q=-0.0 size=N/A time=00:12:42.72 bitrate=N/A speed=20.5x    frame=18565 fps=493 q=-0.0 size=N/A time=00:12:54.31 bitrate=N/A speed=20.5x    frame=18844 fps=493 q=-0.0 size=N/A time=00:13:05.95 bitrate=N/A speed=20.6x    frame=19125 fps=494 q=-0.0 size=N/A time=00:13:17.67 bitrate=N/A speed=20.6x    frame=19383 fps=494 q=-0.0 size=N/A time=00:13:28.43 bitrate=N/A speed=20.6x    frame=19639 fps=494 q=-0.0 size=N/A time=00:13:39.10 bitrate=N/A speed=20.6x    frame=19883 fps=494 q=-0.0 size=N/A time=00:13:49.28 bitrate=N/A speed=20.6x    frame=20147 fps=494 q=-0.0 size=N/A time=00:14:00.29 bitrate=N/A speed=20.6x    frame=20416 fps=494 q=-0.0 size=N/A time=00:14:11.51 bitrate=N/A speed=20.6x    frame=20685 fps=495 q=-0.0 size=N/A time=00:14:22.73 bitrate=N/A speed=20.6x    frame=20948 fps=495 q=-0.0 size=N/A time=00:14:33.70 bitrate=N/A speed=20.6x    frame=21231 fps=496 q=-0.0 size=N/A time=00:14:45.50 bitrate=N/A speed=20.7x    frame=21512 fps=496 q=-0.0 size=N/A time=00:14:57.22 bitrate=N/A speed=20.7x    frame=21789 fps=497 q=-0.0 size=N/A time=00:15:08.78 bitrate=N/A speed=20.7x    frame=22055 fps=497 q=-0.0 size=N/A time=00:15:19.87 bitrate=N/A speed=20.7x    frame=22320 fps=497 q=-0.0 size=N/A time=00:15:30.93 bitrate=N/A speed=20.7x    frame=22591 fps=497 q=-0.0 size=N/A time=00:15:42.23 bitrate=N/A speed=20.7x    frame=22860 fps=498 q=-0.0 size=N/A time=00:15:53.45 bitrate=N/A speed=20.8x    frame=23119 fps=498 q=-0.0 size=N/A time=00:16:04.25 bitrate=N/A speed=20.8x    frame=23391 fps=498 q=-0.0 size=N/A time=00:16:15.59 bitrate=N/A speed=20.8x    frame=23652 fps=498 q=-0.0 size=N/A time=00:16:26.48 bitrate=N/A speed=20.8x    frame=23938 fps=499 q=-0.0 size=N/A time=00:16:38.41 bitrate=N/A speed=20.8x    frame=24197 fps=499 q=-0.0 size=N/A time=00:16:49.21 bitrate=N/A speed=20.8x    frame=24456 fps=499 q=-0.0 size=N/A time=00:17:00.01 bitrate=N/A speed=20.8x    frame=24702 fps=499 q=-0.0 size=N/A time=00:17:10.27 bitrate=N/A speed=20.8x    frame=24978 fps=499 q=-0.0 size=N/A time=00:17:21.79 bitrate=N/A speed=20.8x    frame=25258 fps=499 q=-0.0 size=N/A time=00:17:33.46 bitrate=N/A speed=20.8x    frame=25532 fps=500 q=-0.0 size=N/A time=00:17:44.89 bitrate=N/A speed=20.8x    frame=25796 fps=500 q=-0.0 size=N/A time=00:17:55.90 bitrate=N/A speed=20.8x    frame=26050 fps=500 q=-0.0 size=N/A time=00:18:06.50 bitrate=N/A speed=20.8x    frame=26306 fps=500 q=-0.0 size=N/A time=00:18:17.17 bitrate=N/A speed=20.8x    frame=26561 fps=500 q=-0.0 size=N/A time=00:18:27.81 bitrate=N/A speed=20.8x    frame=26817 fps=500 q=-0.0 size=N/A time=00:18:38.49 bitrate=N/A speed=20.8x    frame=27067 fps=500 q=-0.0 size=N/A time=00:18:48.91 bitrate=N/A speed=20.8x    frame=27320 fps=499 q=-0.0 size=N/A time=00:18:59.47 bitrate=N/A speed=20.8x    frame=27570 fps=499 q=-0.0 size=N/A time=00:19:09.89 bitrate=N/A speed=20.8x    frame=27836 fps=499 q=-0.0 size=N/A time=00:19:20.99 bitrate=N/A speed=20.8x    frame=28092 fps=500 q=-0.0 size=N/A time=00:19:31.67 bitrate=N/A speed=20.8x    frame=28368 fps=500 q=-0.0 size=N/A time=00:19:43.18 bitrate=N/A speed=20.8x    frame=28639 fps=500 q=-0.0 size=N/A time=00:19:54.48 bitrate=N/A speed=20.9x    frame=28907 fps=500 q=-0.0 size=N/A time=00:20:05.66 bitrate=N/A speed=20.9x    frame=29184 fps=500 q=-0.0 size=N/A time=00:20:17.21 bitrate=N/A speed=20.9x    frame=29457 fps=501 q=-0.0 size=N/A time=00:20:28.60 bitrate=N/A speed=20.9x    frame=29715 fps=501 q=-0.0 size=N/A time=00:20:39.36 bitrate=N/A speed=20.9x    frame=29943 fps=500 q=-0.0 size=N/A time=00:20:48.87 bitrate=N/A speed=20.9x    frame=30163 fps=500 q=-0.0 size=N/A time=00:20:58.04 bitrate=N/A speed=20.8x    frame=30400 fps=499 q=-0.0 size=N/A time=00:21:07.93 bitrate=N/A speed=20.8x    frame=30648 fps=499 q=-0.0 size=N/A time=00:21:18.27 bitrate=N/A speed=20.8x    frame=30880 fps=499 q=-0.0 size=N/A time=00:21:27.95 bitrate=N/A speed=20.8x    frame=31100 fps=498 q=-0.0 size=N/A time=00:21:37.12 bitrate=N/A speed=20.8x    frame=31330 fps=498 q=-0.0 size=N/A time=00:21:46.72 bitrate=N/A speed=20.8x    frame=31557 fps=497 q=-0.0 size=N/A time=00:21:56.18 bitrate=N/A speed=20.7x    frame=31791 fps=497 q=-0.0 size=N/A time=00:22:05.94 bitrate=N/A speed=20.7x    frame=32043 fps=497 q=-0.0 size=N/A time=00:22:16.46 bitrate=N/A speed=20.7x    frame=32298 fps=497 q=-0.0 size=N/A time=00:22:27.09 bitrate=N/A speed=20.7x    frame=32545 fps=497 q=-0.0 size=N/A time=00:22:37.39 bitrate=N/A speed=20.7x    frame=32776 fps=496 q=-0.0 size=N/A time=00:22:47.03 bitrate=N/A speed=20.7x    frame=33032 fps=496 q=-0.0 size=N/A time=00:22:57.70 bitrate=N/A speed=20.7x    frame=33295 fps=496 q=-0.0 size=N/A time=00:23:08.67 bitrate=N/A speed=20.7x    frame=33477 fps=495 q=-0.0 size=N/A time=00:23:16.26 bitrate=N/A speed=20.7x    frame=33645 fps=494 q=-0.0 size=N/A time=00:23:23.27 bitrate=N/A speed=20.6x    frame=33875 fps=494 q=-0.0 size=N/A time=00:23:32.86 bitrate=N/A speed=20.6x    frame=34144 fps=494 q=-0.0 size=N/A time=00:23:44.08 bitrate=N/A speed=20.6x    frame=34399 fps=494 q=-0.0 size=N/A time=00:23:54.72 bitrate=N/A speed=20.6x    [Parsed_psnr_10 @ 00000165d28ed040] PSNR y:48.783283 u:52.428558 v:52.110927 average:49.665711 min:42.233710 max:inf
[out#0/null @ 00000165d24dd2c0] video:14800KiB audio:269380KiB subtitle:0KiB other streams:0KiB global headers:0KiB muxing overhead: unknown
frame=34443 fps=494 q=-0.0 Lsize=N/A time=00:23:56.56 bitrate=N/A speed=20.6x    
